<svg width="400" height="151" viewBox="0 0 400 151" fill="none" xmlns="http://www.w3.org/2000/svg">
    <path opacity="0.149" d="M331.677 150.5C325.462 150.478 319.358 148.852 313.956 145.78C308.554 142.707 304.036 138.292 300.841 132.962C298.409 128.911 296.806 124.417 296.124 119.741C295.442 115.065 295.696 110.3 296.869 105.723C298.043 101.146 300.114 96.8475 302.961 93.0766C305.809 89.3057 309.376 86.1376 313.457 83.756C319.169 80.3888 325.691 78.6422 332.32 78.704C338.535 78.7253 344.639 80.351 350.041 83.4235C355.443 86.4961 359.96 90.9114 363.155 96.242C365.586 100.293 367.189 104.786 367.87 109.461C368.552 114.136 368.299 118.9 367.126 123.476C365.953 128.053 363.883 132.351 361.036 136.121C358.19 139.892 354.623 143.06 350.543 145.442C344.925 148.753 338.522 150.5 332 150.5H331.677ZM322.613 98.983C319.182 101.006 316.51 104.101 315.011 107.792C313.512 111.482 313.27 115.564 314.32 119.407C315.369 123.249 317.654 126.64 320.821 129.056C323.989 131.472 327.862 132.779 331.846 132.775C335.201 132.806 338.5 131.921 341.39 130.216C343.455 129.01 345.261 127.406 346.702 125.497C348.144 123.588 349.192 121.412 349.786 119.095C350.38 116.778 350.508 114.366 350.163 111.999C349.818 109.632 349.008 107.357 347.778 105.306C346.158 102.606 343.868 100.37 341.131 98.8141C338.394 97.2584 335.301 96.4358 332.153 96.426H331.975C328.681 96.428 325.449 97.3115 322.612 98.985L322.613 98.983ZM68.5998 147.994C62.385 147.975 56.2814 146.35 50.8791 143.278C45.4767 140.206 40.9588 135.79 37.7648 130.459C35.3327 126.408 33.7292 121.915 33.0471 117.24C32.3649 112.564 32.6179 107.8 33.7912 103.224C34.9645 98.6467 37.0347 94.3484 39.882 90.578C42.7293 86.8076 46.2971 83.64 50.3781 81.259C56.0904 77.8906 62.6131 76.1433 69.2443 76.205C75.4586 76.2264 81.5617 77.8523 86.9631 80.9252C92.3644 83.9982 96.8809 88.414 100.074 93.745C102.521 97.7812 104.134 102.267 104.819 106.937C105.503 111.607 105.244 116.367 104.058 120.936C102.89 125.522 100.822 129.831 97.9728 133.61C95.1238 137.389 91.5509 140.564 87.4631 142.949C81.8546 146.254 75.4639 147.997 68.9543 147.997L68.5998 147.994ZM59.5295 96.484C57.4604 97.6927 55.6522 99.3008 54.2101 101.215C52.7681 103.128 51.7205 105.31 51.1291 107.632C50.5291 109.945 50.3983 112.354 50.7453 114.718C51.0922 117.081 51.9104 119.351 53.1496 121.394C55.6699 125.544 59.7231 128.534 64.4318 129.717C69.1405 130.901 74.125 130.182 78.3078 127.717C80.3739 126.511 82.1806 124.908 83.6222 122.999C85.0638 121.09 86.112 118.914 86.7062 116.597C87.3004 114.279 87.4292 111.867 87.0842 109.5C86.7391 107.133 85.9274 104.858 84.6965 102.807C83.0776 100.106 80.7884 97.8686 78.051 96.312C75.3135 94.7554 72.2205 93.9321 69.0715 93.922H68.9074C65.609 93.924 62.3713 94.809 59.5305 96.485L59.5295 96.484ZM380.782 128.961C379.282 128.946 376.095 128.911 371.537 128.861C371.905 127.786 372.243 126.697 372.529 125.583C373.933 120.157 374.238 114.506 373.426 108.961C372.614 103.416 370.702 98.0889 367.803 93.293C364.024 86.9657 358.674 81.7227 352.272 78.0731C345.869 74.4235 338.632 72.4913 331.262 72.464C323.399 72.3906 315.667 74.4652 308.897 78.464C300.596 83.3313 294.193 90.8733 290.738 99.8547C287.284 108.836 286.981 118.724 289.88 127.9C229.023 127.174 152.586 126.251 108.643 125.719C108.929 124.848 109.198 123.97 109.421 123.075C110.826 117.65 111.132 111.998 110.32 106.453C109.509 100.907 107.597 95.5801 104.695 90.785C100.918 84.4581 95.5678 79.2153 89.1662 75.5654C82.7646 71.9155 75.5283 69.9825 68.1594 69.954C60.2969 69.8809 52.5634 71.9554 45.7931 75.954C38.3848 80.3007 32.467 86.7897 28.8195 94.5661C25.172 102.343 23.9663 111.042 25.3605 119.517L13.3195 118.057C9.77327 118.037 6.37999 116.61 3.88592 114.089C1.39185 111.568 0.0003835 108.159 0.0187339 104.613L0.18475 87.413C0.25675 80.056 6.98471 74.064 14.3947 74.136C14.3947 74.136 14.6222 67.216 14.7512 53.889C14.8802 40.562 19.7516 38.438 27.8986 34.001C69.6476 11.692 116.316 0.186815 163.651 0.533998C251.851 1.377 301.006 47.542 301.006 47.542C308.423 47.612 377.048 52.708 391.964 72.273C406.84 91.796 399.838 128.973 380.918 128.973L380.782 128.961ZM68.0998 35.583C65.1898 39.951 66.3588 43.363 75.2228 43.445C84.0868 43.527 270.178 52.31 274.583 52.352C278.988 52.394 283.206 50.152 278.426 46.186C263.542 33.842 226.171 10.623 161.527 10.011C160.432 10.001 159.352 9.995 158.28 9.995C100.222 10 74.9938 25.24 68.0998 35.583Z" fill="#363F45"/>
    <path d="M332 150.5H331.672H331.54H332.6H332.482H332ZM68.9558 148H68.6003C62.3855 147.981 56.2811 146.357 50.8787 143.284C45.4763 140.212 40.9592 135.796 37.7654 130.465C35.3333 126.414 33.7298 121.921 33.0476 117.246C32.3655 112.57 32.6184 107.806 33.7918 103.229C34.9651 98.6527 37.0353 94.3545 39.8826 90.584C42.7299 86.8136 46.2977 83.646 50.3787 81.265C55.9897 77.954 62.3851 76.2051 68.9002 76.2H69.242C75.4565 76.2212 81.56 77.847 86.9617 80.92C92.3634 83.9929 96.8802 88.4089 100.074 93.74C102.521 97.7763 104.133 102.262 104.817 106.932C105.501 111.603 105.242 116.363 104.055 120.931C102.888 125.517 100.819 129.825 97.9705 133.604C95.1218 137.384 91.55 140.558 87.4627 142.944C81.8549 146.249 75.4653 147.995 68.9558 148ZM68.9089 93.926C65.6097 93.9279 62.3712 94.8125 59.5291 96.488C57.46 97.6968 55.6518 99.3049 54.2097 101.219C52.7677 103.133 51.7202 105.314 51.1287 107.636C50.5287 109.948 50.3979 112.358 50.7449 114.722C51.0918 117.085 51.9099 119.355 53.1492 121.398C54.7672 124.099 57.0554 126.336 59.7927 127.892C62.5301 129.448 65.6236 130.27 68.7722 130.278H68.95C72.2421 130.276 75.473 129.393 78.3084 127.72C80.3741 126.514 82.1804 124.91 83.6218 123.001C85.0632 121.092 86.1115 118.916 86.7058 116.599C87.3001 114.282 87.4284 111.87 87.0837 109.503C86.7391 107.136 85.9284 104.861 84.698 102.81C83.0791 100.109 80.79 97.8716 78.0525 96.315C75.315 94.7584 72.2221 93.9351 69.073 93.925L68.9089 93.926ZM200 126.82C165.144 126.4 132.219 126.002 108.644 125.72C108.976 124.709 109.225 123.869 109.423 123.076C110.828 117.651 111.135 111.999 110.323 106.453C109.511 100.908 107.598 95.581 104.697 90.786C100.919 84.4588 95.5694 79.2157 89.1677 75.5658C82.766 71.9159 75.53 69.9831 68.1609 69.955H67.7517C60.0275 69.9573 52.4449 72.0291 45.7927 75.955C40.944 78.7916 36.7075 82.5639 33.3298 87.0525C29.9522 91.5411 27.5009 96.6564 26.1179 102.101C24.6488 107.789 24.3914 113.723 25.3621 119.517L13.3211 118.057C11.5599 118.047 9.81775 117.689 8.19507 117.005C6.5724 116.32 5.10102 115.322 3.865 114.067C2.6285 112.825 1.65129 111.35 0.990973 109.727C0.330656 108.104 -0.000226576 106.365 0.0183165 104.613L0.185309 87.413C0.221361 85.6377 0.62227 83.8887 1.36304 82.2748C2.10382 80.661 3.16926 79.2168 4.49195 78.032C5.79865 76.8173 7.31576 75.8515 8.96949 75.182C10.6498 74.4939 12.4477 74.1386 14.2634 74.136H14.3972C14.3972 74.088 14.6247 67.099 14.7517 53.889C14.8087 47.84 15.8302 43.843 18.0652 40.929C20.1582 38.199 23.1652 36.567 26.9812 34.5C27.2852 34.336 27.5915 34.1693 27.9002 34C44.16 25.2451 61.2611 18.1519 78.9441 12.828C105.552 4.70248 133.214 0.555304 161.035 0.520996C161.902 0.520996 162.783 0.520997 163.654 0.533997C175.827 0.640252 187.975 1.64802 200 3.54901V13.293C187.282 11.1995 174.421 10.1022 161.532 10.011C160.448 10.001 159.355 9.99597 158.286 9.99597C132.353 9.99597 110.725 12.996 94.0046 18.911C77.1626 24.869 70.5472 31.911 68.1052 35.583C66.6922 37.705 66.3272 39.445 67.0212 40.755C67.9442 42.498 70.7043 43.403 75.2253 43.445C80.4253 43.496 146.726 46.545 200.003 48.991V126.818L200 126.82Z" fill="white"/>
    <path d="M69.2454 76.2001C62.6143 76.1381 56.0917 77.8858 50.3801 81.2551C46.2991 83.6361 42.7313 86.8036 39.884 90.5741C37.0367 94.3446 34.9664 98.6429 33.7932 103.22C32.62 107.796 32.3677 112.561 33.0501 117.236C33.7324 121.911 35.3355 126.404 37.7678 130.455C40.9622 135.786 45.4798 140.201 50.8821 143.273C56.2844 146.345 62.3882 147.97 68.6028 147.989C75.2321 148.053 81.7536 146.308 87.4651 142.942C91.5451 140.56 95.1117 137.392 97.9583 133.621C100.805 129.851 102.875 125.553 104.048 120.976C105.221 116.4 105.474 111.636 104.792 106.961C104.111 102.286 102.508 97.793 100.077 93.7421C96.8839 88.4105 92.3678 83.9941 86.9661 80.9208C81.5643 77.8475 75.4601 76.2214 69.2454 76.2001ZM86.7141 116.57C86.1229 118.892 85.0761 121.073 83.634 122.986C82.1919 124.9 80.3839 126.507 78.3147 127.715C74.1315 130.18 69.1456 130.898 64.4368 129.715C59.7279 128.532 55.6746 125.542 53.1536 121.392C51.9147 119.349 51.097 117.079 50.7502 114.715C50.4035 112.351 50.5341 109.942 51.134 107.629C51.7256 105.307 52.773 103.126 54.2151 101.213C55.6572 99.2992 57.4654 97.6915 59.5344 96.483C62.4228 94.7787 65.7208 93.893 69.0745 93.9211C72.2234 93.9306 75.3164 94.7534 78.054 96.3097C80.7915 97.866 83.0806 100.103 84.6995 102.804C85.9373 104.849 86.7528 107.12 87.0989 109.485C87.4449 111.85 87.3142 114.26 86.7141 116.573V116.57Z" fill="#363F45"/>
    <path d="M170.545 73.4469L171.773 61.3942H184.158V64.233H174.38L173.649 70.8239C174.834 70.1266 176.178 69.778 177.684 69.778C179.886 69.778 181.635 70.5084 182.93 71.9694C184.225 73.4192 184.872 75.3837 184.872 77.8629C184.872 80.3531 184.197 82.3177 182.847 83.7565C181.507 85.1842 179.632 85.8981 177.219 85.8981C175.083 85.8981 173.34 85.3059 171.989 84.1217C170.639 82.9375 169.87 81.2994 169.682 79.2076H172.587C172.775 80.5911 173.268 81.637 174.064 82.3453C174.861 83.0426 175.913 83.3912 177.219 83.3912C178.646 83.3912 179.764 82.9043 180.572 81.9303C181.391 80.9563 181.801 79.6116 181.801 77.8961C181.801 76.2802 181.358 74.9853 180.473 74.0114C179.598 73.0263 178.431 72.5338 176.97 72.5338C175.631 72.5338 174.579 72.8271 173.815 73.4137L173.002 74.0778L170.545 73.4469ZM203.383 75.2565C203.383 78.8535 202.769 81.5263 201.54 83.275C200.312 85.0237 198.391 85.8981 195.779 85.8981C193.201 85.8981 191.291 85.0459 190.052 83.3414C188.812 81.6259 188.17 79.0693 188.126 75.6715V71.5709C188.126 68.0182 188.74 65.3785 189.969 63.652C191.197 61.9254 193.123 61.0621 195.746 61.0621C198.347 61.0621 200.262 61.8977 201.49 63.569C202.719 65.2291 203.35 67.7968 203.383 71.2721V75.2565ZM200.312 71.0563C200.312 68.4554 199.946 66.5628 199.216 65.3785C198.485 64.1832 197.329 63.5856 195.746 63.5856C194.174 63.5856 193.029 64.1777 192.31 65.3619C191.59 66.5462 191.219 68.3668 191.197 70.8239V75.7379C191.197 78.3499 191.574 80.2812 192.326 81.5319C193.09 82.7714 194.241 83.3912 195.779 83.3912C197.296 83.3912 198.419 82.8046 199.149 81.6315C199.891 80.4583 200.278 78.61 200.312 76.0865V71.0563ZM207.052 66.0426C207.052 64.5927 207.511 63.3974 208.43 62.4567C209.359 61.5159 210.549 61.0455 211.999 61.0455C213.471 61.0455 214.661 61.5214 215.568 62.4733C216.487 63.414 216.946 64.637 216.946 66.1422V67.3209C216.946 68.7819 216.481 69.9772 215.552 70.9069C214.633 71.8255 213.46 72.2848 212.032 72.2848C210.593 72.2848 209.404 71.8255 208.463 70.9069C207.522 69.9772 207.052 68.7431 207.052 67.2047V66.0426ZM209.343 67.3209C209.343 68.1842 209.586 68.8981 210.073 69.4625C210.56 70.0159 211.213 70.2926 212.032 70.2926C212.818 70.2926 213.449 70.0214 213.925 69.4791C214.412 68.9368 214.655 68.1953 214.655 67.2545V66.0426C214.655 65.1793 214.417 64.4655 213.941 63.901C213.465 63.3365 212.818 63.0543 211.999 63.0543C211.18 63.0543 210.533 63.3365 210.057 63.901C209.581 64.4655 209.343 65.2015 209.343 66.109V67.3209ZM218.822 79.6393C218.822 78.1894 219.282 76.9996 220.2 76.0699C221.13 75.1292 222.32 74.6588 223.77 74.6588C225.219 74.6588 226.409 75.1237 227.339 76.0533C228.269 76.983 228.733 78.2171 228.733 79.7555V80.9342C228.733 82.3841 228.269 83.5794 227.339 84.5201C226.42 85.4498 225.242 85.9147 223.803 85.9147C222.364 85.9147 221.174 85.4554 220.233 84.5367C219.293 83.6071 218.822 82.373 218.822 80.8346V79.6393ZM221.113 80.9342C221.113 81.8086 221.357 82.528 221.844 83.0924C222.331 83.6458 222.984 83.9225 223.803 83.9225C224.6 83.9225 225.236 83.6513 225.712 83.109C226.188 82.5556 226.426 81.8086 226.426 80.8678V79.6393C226.426 78.7649 226.182 78.0511 225.695 77.4977C225.219 76.9443 224.577 76.6676 223.77 76.6676C222.984 76.6676 222.342 76.9443 221.844 77.4977C221.357 78.04 221.113 78.776 221.113 79.7057V80.9342ZM212.729 83.7399L210.986 82.6442L222.79 63.7516L224.533 64.8473L212.729 83.7399Z" fill="#353B3E"/>
</svg>
